# xmcd CD database file
#
# Track frame offsets:
#	150
#	18395
#	29244
#	35382
#	47530
#	67807
#	77527
#	94779
#	108327
#	122207
#	142800
#	161720
#	175615
#	193684
#	206967
#	216350
#	234092
#	254525
#
# Disc length: 3583 seconds
#
# Revision: 0
# Processed by: cddbd v1.5.2PL0 Copyright (c) Steve Scherf et al.
# Submitted via: CDex 1.51
#
DISCID=f50dfd12
DTITLE=Michel Sherman - The Earth Speaks
DYEAR=1995
DGENRE=New Age
TTITLE0=The Earth Speaks
TTITLE1=Longing for the Ocean
TTITLE2=Dance of the Water Sprites
TTITLE3=Igor's Waltz with the Flies
TTITLE4=Enter Dragon's Realm
TTITLE5=Fingers of the Mist
TTITLE6=Angel Birds
TTITLE7=Lost Caverns of the Soul
TTITLE8=Music of the Mountains
TTITLE9=The Magic Garden
TTITLE10=Birds Call to Prayer
TTITLE11=Rana, Queen of the Heavens
TTITLE12=Chrysalis
TTITLE13=Water Temples
TTITLE14=Into the Eye of the Tiger
TTITLE15=Interdimensional Avenues
TTITLE16=Ocean Walking
TTITLE17=Sacred Harmony Among All Species
EXTD=YEAR: 1995
EXTT0=
EXTT1=
EXTT2=
EXTT3=
EXTT4=
EXTT5=
EXTT6=
EXTT7=
EXTT8=
EXTT9=
EXTT10=
EXTT11=
EXTT12=
EXTT13=
EXTT14=
EXTT15=
EXTT16=
EXTT17=
PLAYORDER=
